<?xml version="1.0" encoding="utf-8"?>
<!-- Generator: Adobe Illustrator 24.3.0, SVG Export Plug-In . SVG Version: 6.00 Build 0)  -->
<svg version="1.1" id="Ebene_1" xmlns="http://www.w3.org/2000/svg" xmlns:xlink="http://www.w3.org/1999/xlink" x="0px" y="0px"
	 viewBox="0 0 841.9 595.3" style="enable-background:new 0 0 841.9 595.3;" xml:space="preserve">
<style type="text/css">
	.st0{fill:none;stroke:#FFFFFF;stroke-width:1.1339;stroke-miterlimit:10;}
</style>
<g>
	<path class="st0" d="M340.2,465.4c-57.4,8.7-153.3-16.4-225.6-81c-18.2-16.3-32-32.9-40.6-48.9c-4-19.1-6.3-37.5-7.4-54.7
		c14.3-44.5,73.2-115.1,106.8-155.3c2.7-3.2,2.4-8.1-0.8-10.9c-3.1-2.8-7.9-2.4-10.6,0.8c-36.6,43.9-74.9,91.4-96.4,130.9
		c0-2.5,0.1-5,0.2-7.5c2.1-64.5,17.7-110.8,17.9-111.2c1.4-4-0.7-8.4-4.5-9.9c-3.9-1.4-8.2,0.7-9.6,4.7c-0.7,2-16.5,48.6-18.7,115.4
		c-0.4,12.7-0.3,26.6,0.6,41.5c-2,6.9-3.1,13.3-3.1,19.1c0,13.5,3.9,27.8,11.4,42.4c9.1,42.8,26.4,88.8,57.3,132.5
		c1.5,2.1,3.8,3.2,6.1,3.2c1.5,0,3.1-0.5,4.4-1.5c3.3-2.5,4.1-7.4,1.6-10.8c-20.2-28.7-34.4-58.4-44.1-87.5
		c5.9,6.6,12.5,13.1,19.7,19.6c51,45.6,135.8,86.6,210.4,86.6c9.3,0,18.4-0.6,27.2-2c4.1-0.6,6.9-4.5,6.3-8.8
		C348.1,467.7,344.3,464.8,340.2,465.4z"/>
	<path class="st0" d="M793.4,360.7c-0.7-4.2-4.6-7-8.6-6.3c-101.6,18-159.9,1.1-206.8-12.4c-26.2-7.6-48.9-14.1-74.4-14.1
		c-22,0-35.3,3.9-46,7c-8.3,2.4-14.8,4.3-23.7,4.3c-23.4,0-35.4-8.4-45.9-15.8c-7.8-5.4-15.1-10.6-25-10.6
		c-11.4,0-18.4,6.4-23.9,11.6c-4.5,4.2-7.2,6.5-10.9,6.5c-2.6,0-6.8-3-10.2-5.4c-4.6-3.3-9.4-6.7-14.9-6.7
		c-11.8,0-21.7,7.6-31.2,14.9c-9.2,7.1-17.8,13.7-27.4,13.7c-1.9,0-6.1-3.4-8.9-5.6c-5-3.9-10.1-8-16.1-8c-10,0-21.7,9.8-38.5,24.9
		c-6.6,5.9-16.5,14.8-19.9,15.8c-5.6-0.1-5.6-1.7-5.6-2.8c0-23,63.7-60.3,96.8-71c3.9-1.3,6.2-5.6,4.9-9.7c-1.2-4.1-5.4-6.4-9.4-5.1
		c-22.7,7.3-107.4,47.3-107.4,85.8c0,8.9,5.5,18.3,20.9,18.3c7.2,0,15-6.7,29.4-19.6c8.2-7.4,23.5-21.1,28.5-21.1
		c1.4,0.2,5,3.1,7.1,4.8c5.2,4.1,11.1,8.8,18.1,8.8c14.6,0,26.2-8.9,36.4-16.8c7.9-6.1,15.4-11.9,22.1-11.9c1.2,0.2,4.4,2.5,6.5,4
		c5.1,3.6,11.4,8.1,18.7,8.1c9.6,0,15.9-5.8,20.9-10.5c5.1-4.7,8.5-7.6,13.9-7.6c5.3,0,10,3.3,16.6,7.9
		c11.1,7.8,26.3,18.4,54.3,18.4c10.9,0,19.1-2.4,27.7-4.9c10.3-3,22-6.4,41.9-6.4c23.5,0,45.2,6.3,70.4,13.5
		c48.3,13.9,108.5,31.3,213.3,12.7C791.4,368.9,794.1,364.9,793.4,360.7z"/>
	<path class="st0" d="M512.2,314.7c0.3,0,0.7,0,1,0c5.5,0,9.6-3.8,14.3-8.1c8.4-7.7,21.2-19.4,49.2-16.1c4.1,0.5,7.8-2.6,8.3-6.8
		c0.5-4.2-2.5-8.1-6.6-8.5c-15.1-1.8-28.1-0.1-39.7,5.1c-9.8,4.4-16.3,10.4-21.1,14.8c-1.6,1.4-3.6,3.3-4.8,4.1c0.1-1,0.6-3,2-6.5
		c1.6-3.9-0.2-8.5-4-10.1c-3.8-1.6-8.2,0.2-9.8,4.1c-1.8,4.4-5.5,13.6-1.1,21C501.5,310.6,505,314.1,512.2,314.7z"/>
</g>
</svg>
