{
  "accessors": [
    {
      "bufferView": 0,
      "componentType": 5125,
      "count": 56904,
      "type": "SCALAR"
    },
    {
      "bufferView": 1,
      "componentType": 5126,
      "count": 10652,
      "max": [
        1.00000011920929,
        0.418968588113785,
        0.367428869009018
      ],
      "min": [
        -0.999999940395355,
        -0.418968588113785,
        -0.367428869009018
      ],
      "type": "VEC3"
    },
    {
      "bufferView": 2,
      "componentType": 5126,
      "count": 10652,
      "type": "VEC3"
    },
    {
      "bufferView": 3,
      "componentType": 5126,
      "count": 10652,
      "type": "VEC2"
    }
  ],
  "asset": {
    "generator": "Substance Painter 2019.1.2",
    "version": "2.0"
  },
  "bufferViews": [
    {
      "buffer": 0,
      "byteLength": 227616,
      "target": 34963
    },
    {
      "buffer": 0,
      "byteLength": 127824,
      "byteOffset": 227616,
      "target": 34962
    },
    {
      "buffer": 0,
      "byteLength": 127824,
      "byteOffset": 355440,
      "target": 34962
    },
    {
      "buffer": 0,
      "byteLength": 85216,
      "byteOffset": 483264,
      "target": 34962
    }
  ],
  "buffers": [
    {
      "byteLength": 568480,
      "uri": "karlKani_painter_02.bin"
    }
  ],
  "images": [
    {
      "uri": "DefaultMaterial_baseColor.jpg"
    },
    {
      "uri": "DefaultMaterial_occlusionRoughnessMetallic.jpg"
    },
    {
      "uri": "DefaultMaterial_normal.jpg"
    }
  ],
  "materials": [
    {
      "alphaMode": "OPAQUE",
      "name": "DefaultMaterial",
      "normalTexture": {
        "index": 2
      },
      "occlusionTexture": {
        "index": 1
      },
      "pbrMetallicRoughness": {
        "baseColorTexture": {
          "index": 0
        },
        "metallicRoughnessTexture": {
          "index": 1
        }
      }
    }
  ],
  "meshes": [
    {
      "name": "karlKani_03",
      "primitives": [
        {
          "attributes": {
            "NORMAL": 2,
            "POSITION": 1,
            "TEXCOORD_0": 3
          },
          "indices": 0,
          "material": 0,
          "mode": 4
        }
      ]
    }
  ],
  "nodes": [
    {
      "children": [
        1
      ],
      "name": "karlKani_maya_01_export04.obj",
      "scale": [
        1.00012147426605,
        1.00012147426605,
        1.00012147426605
      ],
      "translation": [
        0.0405284762382507,
        0.0153084993362427,
        -0.00727751851081848
      ]
    },
    {
      "children": [
        2
      ],
      "name": "g karlKani_03"
    },
    {
      "mesh": 0,
      "name": "karlKani_03"
    }
  ],
  "samplers": [
    {
      "magFilter": 9729,
      "minFilter": 9985,
      "wrapS": 10497,
      "wrapT": 10497
    }
  ],
  "scene": 0,
  "scenes": [
    {
      "name": "Scene",
      "nodes": [
        0
      ]
    }
  ],
  "textures": [
    {
      "sampler": 0,
      "source": 0
    },
    {
      "sampler": 0,
      "source": 1
    },
    {
      "sampler": 0,
      "source": 2
    }
  ]
}